<svg width="122" height="106" viewBox="0 0 122 106" fill="none" xmlns="http://www.w3.org/2000/svg">
<path d="M22.3614 73.347L22.3653 64.2176L14.3565 64.2197L33.1944 28.2656L52.036 64.2143L44.0167 64.2097L44.0233 73.3458L66.3849 73.3431L33.1916 10L0 73.3498L22.3614 73.347Z" fill="#F74532"/>
<path d="M61.3837 73.347L61.3876 64.2176L53.3788 64.2197L72.2167 28.2656L91.0582 64.2143L83.039 64.2097L83.0456 73.3458L105.407 73.3431L72.2139 10L39.0223 73.3498L61.3837 73.347Z" fill="#F74532"/>
<path d="M102.946 5.48001C102.946 6.84001 102.424 8.01601 101.378 9.00801C101.059 9.31201 100.71 9.61601 100.333 9.92001L95.65 13.64H102.946V17H91.1851V12.44L99.0259 6.20001V5.00001C99.0259 4.04001 98.5903 3.56001 97.7191 3.56001H91.6207V0.200012H98.5903C100.115 0.200012 101.218 0.584013 101.901 1.35201C102.598 2.10401 102.946 3.32001 102.946 5.00001V5.48001Z" fill="#F74532"/>
</svg>
