<svg width="135" height="111" viewBox="0 0 135 111" fill="none" xmlns="http://www.w3.org/2000/svg">
<path d="M24.6408 78.347L24.6451 69.2175L15.8199 69.2196L36.578 33.2655L57.3402 69.2142L48.5035 69.2097L48.5108 78.3457L73.1518 78.3431L36.575 15L0 78.3498L24.6408 78.347Z" fill="#495057"/>
<path d="M67.6408 78.347L67.6451 69.2175L58.8199 69.2196L79.578 33.2655L100.34 69.2142L91.5035 69.2097L91.5108 78.3457L116.152 78.3431L79.575 15L43 78.3498L67.6408 78.347Z" fill="#495057"/>
<path d="M113.44 10.48C113.44 11.84 112.864 13.016 111.712 14.008C111.36 14.312 110.976 14.616 110.56 14.92L105.4 18.64H113.44V22H100.48V17.44L109.12 11.2V10C109.12 9.04 108.64 8.56 107.68 8.56H100.96V5.2H108.64C110.32 5.2 111.536 5.584 112.288 6.352C113.056 7.104 113.44 8.32 113.44 10V10.48Z" fill="#495057"/>
</svg>
